<svg width="14" height="14" viewBox="0 0 14 14" fill="none" xmlns="http://www.w3.org/2000/svg">
<g clip-path="url(#clip0_2_45)">
<path d="M12.5728 2.33332C12.5198 2.32786 12.4664 2.32786 12.4134 2.33332H1.52447C1.45468 2.3344 1.38536 2.34486 1.31836 2.36443L6.9378 7.96054L12.5728 2.33332Z" fill="black"/>
<path d="M13.1483 2.8739L7.4861 8.51279C7.34038 8.65765 7.14325 8.73896 6.93777 8.73896C6.73229 8.73896 6.53516 8.65765 6.38944 8.51279L0.777772 2.91668C0.76052 2.98008 0.751373 3.04542 0.750549 3.11112V10.8889C0.750549 11.0952 0.832494 11.293 0.978355 11.4389C1.12422 11.5847 1.32205 11.6667 1.52833 11.6667H12.4172C12.6235 11.6667 12.8213 11.5847 12.9672 11.4389C13.1131 11.293 13.195 11.0952 13.195 10.8889V3.11112C13.1919 3.0301 13.1762 2.95006 13.1483 2.8739ZM2.06111 10.8889H1.52055V10.3328L4.34777 7.5289L4.8961 8.07724L2.06111 10.8889ZM12.4094 10.8889H11.865L9.02999 8.07724L9.57833 7.5289L12.4055 10.3328L12.4094 10.8889Z" fill="black"/>
</g>
<defs>
<clipPath id="clip0_2_45">
<rect width="14" height="14" fill="white"/>
</clipPath>
</defs>
</svg>
