<svg width="14" height="14" viewBox="0 0 14 14" fill="none" xmlns="http://www.w3.org/2000/svg">
<path d="M5.58369 2.86067C5.88119 2.45058 6.33035 2.1875 7.00002 2.1875C7.66969 2.1875 8.11944 2.45 8.41635 2.86067C8.72669 3.29 8.89585 3.91825 8.89585 4.66667V5.39583H5.10419V4.66667C5.10419 3.91825 5.27335 3.29 5.58369 2.86067ZM9.77085 5.39583V4.66667C9.77085 3.8045 9.57835 2.97442 9.1251 2.34792C8.65844 1.70217 7.94094 1.3125 7.00002 1.3125C6.0591 1.3125 5.34219 1.70217 4.87494 2.34792C4.42169 2.97442 4.22919 3.8045 4.22919 4.66667V5.39583H3.89085C3.57877 5.39583 3.31919 5.39583 3.10627 5.41333C2.8846 5.43142 2.67694 5.4705 2.48035 5.57083C2.17845 5.72464 1.93299 5.97009 1.77919 6.272C1.67885 6.46858 1.63919 6.67683 1.62169 6.8985C1.60419 7.11083 1.60419 7.371 1.60419 7.6825V10.4008C1.60419 10.7129 1.60419 10.9725 1.62169 11.1854C1.63919 11.4071 1.67885 11.6153 1.77919 11.8119C1.93299 12.1138 2.17845 12.3593 2.48035 12.5131C2.67694 12.6134 2.8846 12.6525 3.10627 12.6706C3.31919 12.6881 3.57877 12.6881 3.89085 12.6881H10.1092C10.4213 12.6881 10.6809 12.6881 10.8938 12.6706C11.1154 12.6525 11.3231 12.6134 11.5197 12.5131C11.8216 12.3593 12.067 12.1138 12.2209 11.8119C12.3212 11.6153 12.3609 11.4071 12.3784 11.1854C12.3959 10.9731 12.3959 10.7129 12.3959 10.4014V7.6825C12.3959 7.371 12.3959 7.11083 12.3784 6.8985C12.3609 6.67683 12.3212 6.46858 12.2209 6.272C12.0674 5.97027 11.8223 5.72484 11.5209 5.57083C11.3237 5.4705 11.116 5.43142 10.8944 5.41333C10.6814 5.39583 10.4219 5.39583 10.1098 5.39583H9.77085Z" fill="black"/>
</svg>
