<svg width="14" height="14" viewBox="0 0 14 14" fill="none" xmlns="http://www.w3.org/2000/svg">
<path d="M0 5.25H14V8.3125H0V5.25Z" fill="#E6E7E8"/>
<path d="M11.8125 1.96875H2.1875C0.737844 1.96875 0 3.04609 0 4.375V5.25H14V4.375C14 3.04609 13.2622 1.96875 11.8125 1.96875Z" fill="#FF9933"/>
<path d="M0 9.1875C0 10.5164 0.737844 11.5938 2.1875 11.5938H11.8125C13.2622 11.5938 14 10.5164 14 9.1875V8.3125H0V9.1875Z" fill="#128807"/>
<path fill-rule="evenodd" clip-rule="evenodd" d="M7.06784 5.37756C7.34734 5.37756 7.62055 5.46047 7.85291 5.6158C8.08528 5.77112 8.26634 5.99188 8.3732 6.25015C8.48006 6.50841 8.50791 6.79256 8.45322 7.06666C8.39854 7.34075 8.26377 7.59247 8.06599 7.78995C7.8682 7.98743 7.61628 8.1218 7.3421 8.17606C7.06792 8.23032 6.78381 8.20203 6.52571 8.09478C6.26761 7.98752 6.04713 7.80611 5.89217 7.57351C5.73721 7.3409 5.65472 7.06756 5.65515 6.78806C5.65585 6.41381 5.80498 6.05512 6.06982 5.79068C6.33466 5.52625 6.69359 5.37768 7.06784 5.37756ZM6.12612 5.98897C6.1504 6.01653 6.15478 6.04606 6.13859 6.07078C6.13177 6.0822 6.12117 6.09087 6.10862 6.09528C6.09901 6.09886 6.08868 6.10005 6.0785 6.09875C6.06833 6.09745 6.05863 6.09371 6.05022 6.08784C6.0122 6.1423 5.97877 6.19981 5.95025 6.25978C5.98328 6.28144 5.99422 6.30856 5.98328 6.33853C5.97743 6.35379 5.96586 6.36616 5.95103 6.37302C5.93621 6.37988 5.91929 6.38069 5.90387 6.37528C5.88812 6.40678 5.85334 6.53978 5.8529 6.56778C5.86728 6.57082 5.88022 6.5786 5.88965 6.58988C5.89937 6.60131 5.90438 6.61601 5.90365 6.631C5.8995 6.67213 5.87412 6.68963 5.8354 6.69116C5.82928 6.73075 5.82993 6.86331 5.83606 6.88934C5.87689 6.89372 5.89899 6.91158 5.90234 6.94294C5.90715 6.97663 5.89097 6.9985 5.85159 7.01381C5.86326 7.07886 5.88017 7.14266 5.90234 7.20522C5.91777 7.20063 5.93427 7.20116 5.94937 7.20675C5.96403 7.21309 5.97562 7.22403 5.98175 7.23913C5.98714 7.25079 5.98838 7.26312 5.98547 7.27609C5.98341 7.28568 5.97916 7.29466 5.97305 7.30233C5.96694 7.30999 5.95913 7.31614 5.95025 7.32028C5.97956 7.38109 6.01193 7.43841 6.05022 7.49222C6.08434 7.47538 6.11409 7.47931 6.13422 7.50338C6.14299 7.51331 6.14802 7.526 6.14843 7.53925C6.14906 7.54905 6.14732 7.55885 6.14336 7.56784C6.1394 7.57682 6.13334 7.58472 6.12568 7.59088C6.16929 7.64192 6.21632 7.68895 6.26678 7.73197C6.29543 7.70681 6.32518 7.70288 6.35078 7.72081C6.36244 7.72898 6.37025 7.73963 6.37418 7.75275C6.3768 7.76205 6.37734 7.77181 6.37575 7.78134C6.37416 7.79087 6.37049 7.79993 6.365 7.80788C6.42027 7.84579 6.47765 7.8789 6.53715 7.90719C6.56049 7.87452 6.58659 7.86366 6.61547 7.87459C6.62795 7.87908 6.63878 7.88724 6.64653 7.898C6.65717 7.9155 6.65922 7.93461 6.65265 7.95531C6.71565 7.97763 6.77909 7.99469 6.84472 8.00628C6.85762 7.96931 6.87993 7.95203 6.90968 7.95422C6.92347 7.95531 6.93593 7.95947 6.94687 7.96888C6.96218 7.98288 6.96926 8.00074 6.96809 8.02247C7.03517 8.02743 7.10138 8.02743 7.16672 8.02247C7.17153 7.98025 7.18837 7.95903 7.22228 7.95422C7.23516 7.95237 7.24829 7.955 7.25947 7.96166C7.26763 7.96633 7.27465 7.97275 7.28002 7.98047C7.28539 7.98819 7.28898 7.99701 7.29053 8.00628C7.35659 7.99418 7.42061 7.97712 7.48259 7.95509C7.47712 7.91375 7.48718 7.88903 7.51497 7.87613C7.52509 7.87178 7.53615 7.87004 7.54712 7.87109C7.55864 7.87182 7.56863 7.87576 7.57709 7.88291C7.58518 7.88969 7.59197 7.898 7.59984 7.90653C7.65947 7.87839 7.71668 7.84539 7.7709 7.80788C7.74859 7.77288 7.76172 7.73941 7.77987 7.72453C7.7862 7.7191 7.79355 7.71499 7.80149 7.71244C7.80943 7.70988 7.81779 7.70893 7.8261 7.70964C7.83441 7.71035 7.84249 7.71272 7.84988 7.71659C7.85727 7.72046 7.86381 7.72576 7.86912 7.73219C7.91965 7.68888 7.96712 7.64184 8.00956 7.59131C7.98484 7.56309 7.98003 7.53334 7.99818 7.50775C8.00559 7.49633 8.01684 7.48795 8.0299 7.48413C8.03923 7.48115 8.04912 7.48037 8.05879 7.48185C8.06847 7.48333 8.07768 7.48703 8.08568 7.49266C8.12389 7.43768 8.15722 7.38029 8.18565 7.3205C8.15357 7.29906 8.14227 7.27398 8.15175 7.24525C8.15529 7.23253 8.16299 7.22136 8.17362 7.21353C8.18207 7.20751 8.19183 7.20357 8.2021 7.20205C8.21237 7.20053 8.22285 7.20147 8.23268 7.20478C8.2469 7.17394 8.28234 7.044 8.28431 7.0125C8.26921 7.00966 8.25558 7.00161 8.24581 6.98975C8.24074 6.98383 8.23693 6.97693 8.23464 6.96948C8.23234 6.96203 8.2316 6.95419 8.23247 6.94644C8.23335 6.9326 8.23908 6.91951 8.24865 6.90947C8.25531 6.90263 8.26338 6.89733 8.27229 6.89393C8.28121 6.89053 8.29076 6.88911 8.30028 6.88978C8.30576 6.82361 8.30576 6.75711 8.30028 6.69094C8.2585 6.68678 8.23859 6.67059 8.23312 6.63756C8.23071 6.62507 8.23256 6.61213 8.23837 6.60081C8.24288 6.59207 8.24935 6.5845 8.25729 6.57869C8.26522 6.57288 8.2744 6.569 8.28409 6.56734C8.27263 6.50198 8.25558 6.43773 8.23312 6.37528C8.19265 6.38206 8.16772 6.37113 8.15437 6.34313C8.15091 6.33564 8.14897 6.32754 8.14867 6.3193C8.14837 6.31105 8.14972 6.30283 8.15263 6.29512C8.15554 6.2874 8.15996 6.28034 8.16563 6.27435C8.1713 6.26836 8.17811 6.26355 8.18565 6.26022C8.15733 6.20007 8.12388 6.14248 8.08568 6.08806C8.05047 6.10491 8.02181 6.10097 8.00168 6.07691C7.9928 6.06671 7.98783 6.05368 7.98768 6.04016C7.98724 6.03054 7.98907 6.02095 7.99302 6.01217C7.99697 6.00339 8.00294 5.99567 8.01043 5.98963C7.96719 5.9391 7.92017 5.89193 7.86978 5.84853C7.83959 5.87434 7.81028 5.87763 7.78534 5.85969C7.77397 5.85219 7.76566 5.84086 7.76193 5.82775C7.75926 5.81857 7.7587 5.8089 7.76029 5.79946C7.76188 5.79003 7.76558 5.78108 7.77112 5.77328C7.7166 5.73526 7.65901 5.70182 7.59897 5.67331C7.57651 5.7054 7.55099 5.71655 7.5224 5.70678C7.50977 5.70259 7.49871 5.69466 7.49068 5.68403C7.48491 5.6755 7.48123 5.66572 7.47994 5.6555C7.47865 5.64528 7.47978 5.63489 7.48325 5.62519C7.42091 5.60241 7.35662 5.58535 7.29118 5.57422C7.27872 5.60966 7.25618 5.62803 7.22709 5.62628C7.21355 5.62557 7.20055 5.62068 7.1899 5.61228C7.18213 5.60568 7.17607 5.5973 7.17222 5.58786C7.16837 5.57842 7.16686 5.56818 7.16781 5.55803C7.10172 5.55242 7.03526 5.5525 6.96918 5.55825C6.96452 5.59777 6.9476 5.62001 6.91843 5.62497C6.90536 5.6278 6.8917 5.6261 6.87972 5.62016C6.8708 5.61569 6.86306 5.60918 6.85713 5.60116C6.8512 5.59314 6.84725 5.58384 6.84559 5.574C6.78021 5.58589 6.7159 5.60308 6.65331 5.62541C6.66031 5.66413 6.64937 5.6895 6.62268 5.70328C6.61116 5.70941 6.59869 5.71138 6.58528 5.70919C6.57508 5.70782 6.56541 5.70381 6.55724 5.69755C6.54907 5.6913 6.54267 5.68302 6.53868 5.67353C6.50128 5.68753 6.38228 5.75644 6.36653 5.77372C6.38272 5.80609 6.379 5.83475 6.35668 5.85531C6.35038 5.86088 6.34302 5.86513 6.33504 5.8678C6.32707 5.87047 6.31864 5.8715 6.31025 5.87085C6.30186 5.8702 6.29369 5.86787 6.28623 5.864C6.27876 5.86012 6.27214 5.85479 6.26678 5.84831C6.2164 5.89157 6.16938 5.93859 6.12612 5.98897Z" fill="#010088"/>
<path fill-rule="evenodd" clip-rule="evenodd" d="M7.67377 7.83723C7.67114 7.83438 7.66852 7.83242 7.66655 7.82935C7.53937 7.63494 7.41184 7.44076 7.28395 7.24682L7.2752 7.22976C7.24545 7.16042 7.21636 7.09107 7.18595 7.02195C7.18501 7.01836 7.18361 7.0149 7.1818 7.01167C7.16955 7.01626 7.15839 7.02151 7.14527 7.02654L7.14964 7.0377C7.17698 7.10485 7.20323 7.17223 7.23102 7.23938C7.23845 7.25732 7.24152 7.27613 7.24545 7.29495C7.26689 7.39535 7.28702 7.4962 7.30867 7.59682L7.38261 7.95623C7.38309 7.95705 7.38328 7.95802 7.38316 7.95896C7.38305 7.95991 7.38262 7.96079 7.38195 7.96148L7.37889 7.95382C7.31895 7.77029 7.25748 7.58698 7.19733 7.40345C7.1853 7.36757 7.17458 7.33213 7.16145 7.29626C7.15533 7.27832 7.15336 7.25995 7.15052 7.24135C7.14286 7.18929 7.1363 7.13679 7.12777 7.08473C7.12645 7.07233 7.12485 7.06008 7.12295 7.04798L7.12055 7.0331C7.10742 7.03442 7.09539 7.03617 7.08227 7.0377C7.08227 7.04295 7.08256 7.04834 7.08314 7.05388C7.0908 7.11798 7.09736 7.18229 7.10655 7.24617C7.11136 7.28117 7.10895 7.31551 7.10698 7.35051L7.10239 7.43932C7.09845 7.49926 7.09539 7.55898 7.09123 7.6187L7.08467 7.74207L7.07286 7.95142C7.07111 7.9711 7.07067 7.99123 7.0687 8.01048L7.06345 7.9442L7.05667 7.8007L7.0488 7.67273C7.04646 7.62898 7.04398 7.5853 7.04136 7.5417L7.03655 7.45617L7.02911 7.32076C7.02688 7.29686 7.02747 7.27277 7.03086 7.24901C7.03523 7.21649 7.03924 7.18375 7.04289 7.15079C7.04712 7.11827 7.05113 7.08597 7.05492 7.05388L7.05602 7.0377L7.01773 7.03267C7.01642 7.04142 7.01489 7.05009 7.01314 7.0587L6.98514 7.25907C6.98252 7.2851 6.97223 7.30917 6.96348 7.33345C6.89611 7.53878 6.82837 7.74397 6.76027 7.94901C6.75873 7.95273 6.75808 7.95623 6.75523 7.95973C6.75509 7.95725 6.75545 7.95492 6.75633 7.95273C6.78447 7.81433 6.81313 7.67601 6.8423 7.53776L6.89917 7.26257L6.90442 7.24748C6.93264 7.17813 6.95977 7.10813 6.98864 7.03879C6.98972 7.03472 6.99118 7.03077 6.99302 7.02698L6.9567 7.01188C6.95517 7.01582 6.95277 7.0191 6.95145 7.02304L6.86155 7.23195C6.8597 7.23719 6.85735 7.24224 6.85455 7.24704C6.72547 7.44257 6.59677 7.63835 6.46845 7.83438C6.46683 7.83744 6.46451 7.84006 6.46167 7.84204L6.46605 7.83263L6.78236 7.20548C6.78513 7.19981 6.7885 7.19445 6.79242 7.18951L6.92761 7.00817C6.93045 7.0051 6.9322 7.00226 6.93483 6.99898C6.92367 6.99088 6.9147 6.98345 6.90355 6.97492C6.90107 6.97769 6.89888 6.98038 6.89698 6.98301C6.84973 7.04251 6.80307 7.10186 6.75698 7.16107C6.75203 7.16661 6.7467 7.17201 6.74102 7.17726C6.56864 7.33148 6.39627 7.48482 6.22323 7.63926C6.21988 7.64232 6.21609 7.64495 6.21186 7.64713L6.21623 7.64123C6.35798 7.48271 6.49937 7.32419 6.64039 7.16567C6.64856 7.15692 6.65651 7.14795 6.66423 7.13876C6.68042 7.12009 6.69843 7.10332 6.71827 7.08845L6.87533 6.96485C6.87883 6.96223 6.88145 6.95938 6.88539 6.95676L6.86133 6.92592L6.8517 6.9327L6.67102 7.06767C6.66413 7.07252 6.65698 7.07698 6.64958 7.08101C6.44417 7.1847 6.23767 7.28838 6.03183 7.39207C6.02789 7.39382 6.02417 7.39601 6.01958 7.39601L6.02789 7.3901L6.41202 7.13854C6.4791 7.09464 6.54596 7.0506 6.61261 7.00642L6.62923 6.99767C6.69909 6.96806 6.76858 6.93838 6.8377 6.90863C6.84091 6.90747 6.84441 6.90594 6.8482 6.90404L6.83355 6.86795C6.82939 6.86904 6.82677 6.87013 6.82348 6.87123C6.75261 6.89945 6.68239 6.9281 6.61108 6.9561C6.59642 6.96157 6.58045 6.9642 6.56492 6.96748L6.08695 7.06679C6.0268 7.0797 5.96555 7.09238 5.90517 7.10485C5.90274 7.10539 5.90019 7.10508 5.89795 7.10398C5.91458 7.09858 5.93113 7.09304 5.94761 7.08735C6.15411 7.01939 6.36032 6.95129 6.56623 6.88304C6.58242 6.87757 6.5997 6.87604 6.61611 6.87342L6.81473 6.8452L6.82677 6.84257L6.82239 6.80407L6.79045 6.80757L6.65833 6.82354L6.58483 6.83251C6.57899 6.83324 6.57323 6.83346 6.56755 6.83317L6.42842 6.82507L6.34617 6.82048L6.20442 6.81217L5.9977 6.80079C5.94783 6.79817 5.89927 6.79488 5.84961 6.79138C5.85748 6.79073 5.86623 6.78942 5.87477 6.78942L6.0443 6.77979L6.2683 6.7671L6.4538 6.7566L6.57017 6.7496C6.57513 6.7496 6.58002 6.74989 6.58483 6.75048L6.71827 6.76645L6.81277 6.77782H6.82239C6.82348 6.76535 6.82545 6.75354 6.82677 6.73998C6.81867 6.73823 6.80948 6.73692 6.80139 6.73538C6.74306 6.72722 6.6848 6.71883 6.62661 6.71023L6.5903 6.70542C6.58361 6.7045 6.57702 6.70296 6.57061 6.70082C6.3967 6.64373 6.22389 6.5862 6.0502 6.5291L5.90539 6.48098C5.90128 6.47973 5.89737 6.47789 5.8938 6.47551L5.9242 6.48163L6.29542 6.55885C6.39473 6.57963 6.49558 6.6002 6.59489 6.6212L6.61239 6.62667C6.68239 6.65423 6.75173 6.68267 6.82239 6.71067L6.83289 6.71482C6.8377 6.70301 6.84281 6.69098 6.8482 6.67873C6.84462 6.67664 6.84089 6.67482 6.83705 6.67326C6.76748 6.6438 6.69807 6.61405 6.6288 6.58401L6.61305 6.57592C6.41683 6.44751 6.22148 6.31845 6.02505 6.18982C6.02242 6.18844 6.02033 6.1862 6.01914 6.18348L6.02702 6.18785C6.22258 6.28629 6.41836 6.38466 6.61436 6.48295C6.64673 6.49913 6.67823 6.5186 6.70711 6.5407C6.7548 6.57767 6.80336 6.6131 6.85192 6.64942L6.86155 6.6562L6.88561 6.62579L6.87708 6.61835L6.69923 6.47857C6.6934 6.47376 6.68801 6.46873 6.68305 6.46348C6.52803 6.28994 6.37322 6.11639 6.21864 5.94285C6.21654 5.94094 6.21483 5.93864 6.21361 5.93607C6.2182 5.93651 6.21995 5.93957 6.22192 5.94154C6.31555 6.02467 6.40888 6.10779 6.50192 6.19092L6.74298 6.40573C6.74736 6.40996 6.75152 6.41433 6.75545 6.41885L6.89348 6.59429C6.89698 6.59823 6.89961 6.60238 6.90355 6.60763L6.93527 6.58335C6.9333 6.58029 6.93067 6.57788 6.92914 6.57504C6.88422 6.51481 6.83909 6.45466 6.79373 6.39457C6.78901 6.38754 6.7847 6.38023 6.78083 6.3727C6.67597 6.16561 6.57148 5.95853 6.46736 5.75145C6.46539 5.74751 6.46342 5.74445 6.46298 5.74029L6.46823 5.74642L6.6918 6.0881L6.84995 6.32873C6.85542 6.33792 6.86155 6.34754 6.86505 6.3576C6.89436 6.42498 6.92323 6.49243 6.95167 6.55995C6.95342 6.56286 6.95517 6.56629 6.95692 6.57023L6.99323 6.55513L6.9893 6.54595C6.96217 6.4777 6.9349 6.40959 6.90748 6.34163C6.89983 6.32435 6.89698 6.30642 6.89327 6.28848C6.86942 6.17451 6.84645 6.06032 6.82261 5.94613C6.7992 5.83632 6.77689 5.72738 6.75392 5.61713C6.75363 5.6167 6.75392 5.61546 6.7548 5.61342L6.77405 5.67182C6.84273 5.87818 6.91077 6.08475 6.97814 6.29154C6.98383 6.30773 6.9858 6.32545 6.9882 6.34229C6.99608 6.39975 7.00454 6.45735 7.01358 6.5151C7.01511 6.52604 7.01577 6.53698 7.01795 6.54901L7.05602 6.5442V6.52976L7.03939 6.3926C7.03611 6.36592 7.0337 6.33988 7.02998 6.31385C7.02786 6.29634 7.02786 6.27864 7.02998 6.26113L7.03502 6.17232L7.04573 5.99404C7.0477 5.9621 7.04836 5.92973 7.05033 5.89779C7.0531 5.85608 7.05558 5.81423 7.05777 5.77223C7.05966 5.7416 7.06127 5.71098 7.06258 5.68035C7.06447 5.64433 7.06703 5.60838 7.07023 5.57251C7.07096 5.58228 7.07155 5.59242 7.07198 5.60292C7.0749 5.64681 7.07753 5.69085 7.07986 5.73504L7.09123 5.93542L7.09802 6.04785L7.1083 6.24298L7.11048 6.27163C7.11333 6.29701 7.1083 6.32217 7.10611 6.34732L7.09211 6.46195C7.08992 6.4836 7.08664 6.50526 7.08402 6.52713C7.08358 6.53238 7.08358 6.53807 7.08205 6.54442C7.09561 6.54638 7.10786 6.5477 7.12142 6.54945C7.12339 6.54004 7.12427 6.53129 7.1258 6.5221C7.1363 6.45108 7.14651 6.37984 7.15642 6.30838C7.1573 6.30313 7.15948 6.29767 7.1608 6.2922C7.23211 6.07826 7.30211 5.8641 7.37298 5.64973C7.37648 5.63988 7.37911 5.63048 7.38458 5.62107L7.38217 5.63595C7.35023 5.79082 7.31698 5.94526 7.28527 6.0997C7.27097 6.17218 7.25617 6.24466 7.24086 6.31713C7.23978 6.32313 7.23786 6.32895 7.23517 6.33442L7.15073 6.54551C7.14928 6.54843 7.14789 6.55185 7.14658 6.55579C7.1597 6.56082 7.17042 6.56585 7.18311 6.57088L7.18814 6.56038L7.2763 6.35323C7.2798 6.34623 7.28242 6.33945 7.28702 6.33376L7.66873 5.75145C7.67114 5.74838 7.67311 5.74532 7.67683 5.74313C7.67552 5.7462 7.67398 5.74926 7.67223 5.75232L7.35833 6.37576C7.35512 6.38174 7.35162 6.38743 7.34783 6.39282L7.21177 6.57417L7.20455 6.58401L7.23561 6.60829L7.24239 6.59998C7.28862 6.54092 7.33514 6.48178 7.38195 6.42257C7.38711 6.41591 7.3929 6.40975 7.39923 6.4042C7.57205 6.24976 7.745 6.09554 7.91811 5.94154C7.92095 5.93913 7.92292 5.93673 7.92752 5.93542L7.92183 5.94242C7.85139 6.02219 7.78037 6.10174 7.70877 6.18107C7.62375 6.27616 7.53902 6.37124 7.45458 6.46632C7.44991 6.47113 7.44517 6.47544 7.44036 6.47923L7.26252 6.61901L7.25377 6.62601C7.26208 6.63651 7.26952 6.64657 7.27827 6.65707L7.28767 6.65007L7.46989 6.51357L7.48433 6.50438C7.69404 6.39909 7.90316 6.2938 8.1117 6.18851C8.11491 6.18676 8.11827 6.18581 8.12177 6.18567C8.11243 6.19194 8.10303 6.19806 8.09355 6.20404L7.52655 6.57613C7.52144 6.57934 7.51619 6.58219 7.5108 6.58467C7.44102 6.61485 7.37058 6.6446 7.30145 6.67457L7.2903 6.67895C7.2962 6.6912 7.30036 6.70279 7.30561 6.71504L7.31567 6.71176C7.38589 6.68398 7.45567 6.65488 7.52655 6.62798C7.54405 6.62098 7.5633 6.61792 7.58233 6.61398L7.90455 6.54704C8.00473 6.52648 8.10405 6.50548 8.20445 6.4847C8.21335 6.48266 8.22246 6.48076 8.2318 6.47901C8.2342 6.47901 8.23639 6.47857 8.23989 6.47988L8.20927 6.48995C7.99577 6.56068 7.78227 6.63097 7.56877 6.70082C7.55258 6.70651 7.53464 6.70804 7.5178 6.71067L7.37605 6.73101L7.32508 6.73823L7.31261 6.74042C7.31392 6.75332 7.31589 6.76535 7.31677 6.77935L7.3498 6.77585L7.46792 6.76185C7.49745 6.75813 7.5283 6.75398 7.55914 6.75113C7.57292 6.75004 7.58692 6.75135 7.60114 6.75201C7.63111 6.75332 7.66108 6.75595 7.69236 6.75726L7.86911 6.76776L7.94873 6.77213L8.12898 6.78242C8.17164 6.78504 8.21561 6.78701 8.25805 6.78963C8.26858 6.7902 8.27908 6.79115 8.28955 6.79248L8.25761 6.7951L8.12527 6.80232L7.96142 6.81195L7.83783 6.81851C7.78095 6.82201 7.72298 6.82529 7.66567 6.82901C7.63417 6.83032 7.6018 6.83338 7.57008 6.8336C7.55192 6.83404 7.53289 6.83054 7.51517 6.82857L7.39858 6.81457L7.32398 6.8056H7.31677C7.3156 6.81814 7.31421 6.83098 7.31261 6.8441L7.54405 6.87757C7.5668 6.88042 7.5867 6.88938 7.60814 6.89617L8.23027 7.10157C8.23439 7.10215 8.23826 7.1039 8.24142 7.1066C8.23632 7.10573 8.23114 7.105 8.22589 7.10442L7.68558 6.99176L7.54295 6.96201C7.53836 6.9607 7.53223 6.95895 7.5272 6.95654C7.45706 6.92869 7.38662 6.90054 7.31589 6.8721L7.30648 6.86882L7.29052 6.90448L7.30211 6.90995C7.37182 6.93955 7.44131 6.9693 7.51058 6.9992C7.51597 7.00153 7.52152 7.00459 7.5272 7.00838L8.10952 7.38988C8.11236 7.39207 8.11608 7.3947 8.11848 7.39885C8.11542 7.3974 8.11258 7.39586 8.10995 7.39426L7.80655 7.24201C7.70053 7.18834 7.594 7.13468 7.48695 7.08101C7.48009 7.0777 7.4737 7.07351 7.46792 7.06854L7.2868 6.93335L7.27827 6.92723C7.26995 6.93729 7.26252 6.94713 7.25377 6.95763L7.26208 6.9642C7.3207 7.01101 7.38042 7.05782 7.43927 7.10442C7.44592 7.10926 7.45201 7.11483 7.45742 7.12104L7.92095 7.6397C7.92302 7.64218 7.92452 7.6451 7.92533 7.64823C7.92292 7.6456 7.91964 7.64385 7.91723 7.64188C7.74326 7.48657 7.56913 7.33141 7.39486 7.17638C7.3909 7.17288 7.38737 7.16892 7.38436 7.16457L7.24261 6.98388C7.24057 6.98111 7.23831 6.97834 7.23583 6.97557C7.22577 6.98388 7.21592 6.99132 7.20586 7.00007C7.20688 7.00284 7.20841 7.00554 7.21045 7.00817L7.34805 7.19148C7.3518 7.19693 7.3553 7.20255 7.35855 7.20832L7.67114 7.82979C7.67291 7.83257 7.67403 7.83571 7.67442 7.83898H7.67377V7.83723Z" fill="#010088"/>
<path fill-rule="evenodd" clip-rule="evenodd" d="M7.67163 7.83716L7.67662 7.84339C7.67558 7.84381 7.67558 7.84443 7.67433 7.84464C7.67392 7.84173 7.67246 7.83986 7.67205 7.83716H7.67163Z" fill="#010088"/>
</svg>
